<svg version="1.2" xmlns="http://www.w3.org/2000/svg" viewBox="0 0 600 800" width="600" height="800">
	<title>New Project</title>
	<style>
		.s0 { fill: #000000 } 
		.s1 { fill: #cf2f3f } 
		.s2 { fill: #333f6a } 
	</style>
	<g id="Folder 3 copy 2">
		<path id="Path 0" fill-rule="evenodd" class="s0" d="m161.3 267.2c0.8 0 1.3 0.1 2 0.6 0.5 0.4 31.4 15.6 136 66.8l63.2-30.9c34.7-17.1 65.7-32.3 68.7-33.8 3.9-1.9 5.9-2.7 6.4-2.7 0.5 0 2 0.5 3.5 1.1 1.4 0.5 6.2 2.5 10.6 4.3 4.4 1.7 11.4 4.6 15.6 6.2 4.1 1.7 10.9 4.4 15 6.1 4.1 1.6 10.2 4.1 13.5 5.5 3.4 1.3 9.2 3.7 13 5.2 3.8 1.5 10.5 4.2 15 6 4.5 1.8 10.9 4.4 14.3 5.8 3.3 1.4 8.9 3.6 12.3 5 3.5 1.4 10.2 4.1 15 6 4.9 2 11.2 4.6 14.2 5.8 3 1.2 5.7 2.4 6.1 2.6 0.3 0.3 0.8 0.9 1 1.3 0.3 0.7 0.3 3.4 0.3 19.4-0.1 18.2-0.1 18.7-0.6 19.5-0.4 0.7-1.2 1.2-5.5 3.3-2.8 1.3-67 32.7-142.7 69.7-121 59.2-137.7 67.2-138.7 67.2-0.9 0-17.6-8-138.7-67.2-75.7-37-139.9-68.4-142.7-69.7-4.9-2.4-5-2.5-6.1-4.6v-18.1c0-10 0.1-18.5 0.2-19 0.1-0.4 0.5-1.1 0.9-1.5 0.4-0.4 2.5-1.4 5.6-2.7 2.7-1 9.2-3.6 14.3-5.7 5.1-2.1 12.2-4.9 15.6-6.3 3.4-1.4 9-3.6 12.4-5 3.3-1.4 9.8-4 14.2-5.8 4.5-1.8 11.3-4.5 15-6 3.8-1.5 9.6-3.9 13-5.2 3.4-1.4 9.5-3.9 13.6-5.5 4-1.7 10.5-4.3 14.4-5.8 3.8-1.6 11.3-4.6 16.6-6.7 5.4-2.2 10.4-4.2 11.1-4.6 0.7-0.3 1.8-0.6 2.4-0.6zm207 63.1l-68.9 32.3c-106.8-49.9-137.8-64.4-137.8-64.3 0 0.1-25.2 11-56 24.1-30.8 13.1-55.9 23.9-55.9 24 0 0.1 56.2 27.8 124.9 61.6l124.9 61.5c193.7-95.3 249.9-123 249.9-123.1 0-0.1-25.2-10.9-56-24-30.8-13.1-56-24-56.1-24.1-0.1-0.2-25.4 11.5-69 32zm-207.3-202.3q0.8 0 6.7 2.9c3.3 1.6 34.2 16.8 131.6 64.5l62.8-30.8c34.5-16.9 65.5-32.1 68.8-33.7 3.5-1.7 6.2-2.9 6.6-2.9 0.4 0 1.1 0.2 1.5 0.4 0.3 0.2 0.8 0.8 1.1 1.2 0.3 0.6 0.3 2.4 0.2 30l-0.6 0.8c-0.6 0.7-8.7 4.6-70.1 33.4-50.9 23.8-69.7 32.6-70.3 32.6-0.6 0-19.5-8.8-70.3-32.6-61.4-28.8-69.5-32.7-70.7-34.2l-0.1-14.7c-0.1-12.8 0-14.7 0.3-15.3 0.2-0.4 0.7-1 1.1-1.2 0.3-0.2 1-0.4 1.4-0.4zm0 69.6q0.8 0 6.7 2.9c3.3 1.6 34.2 16.8 131.6 64.5l62.8-30.8c34.5-16.9 65.5-32.1 68.8-33.7 3.5-1.7 6.2-2.9 6.6-2.9 0.4 0 1.1 0.2 1.5 0.4 0.3 0.2 0.8 0.8 1.1 1.2 0.3 0.6 0.3 2.4 0.2 30l-0.6 0.8c-0.6 0.7-8.7 4.6-70.1 33.4-50.9 23.8-69.7 32.6-70.3 32.6-0.6 0-19.5-8.8-70.3-32.6-61.4-28.8-69.5-32.7-70.7-34.2l-0.1-14.7c-0.1-12.8 0-14.7 0.3-15.3 0.2-0.4 0.7-1 1.1-1.2 0.3-0.2 1-0.4 1.4-0.4zm-142.2 214.1c0.4 0.1 63.7 31.2 140.6 69.2 77 38 140 69 140.1 69 0.1 0 63.3-31.1 140.4-69.1 114.5-56.6 140.2-69.2 141-69.2 0.6 0 1.3 0.2 1.7 0.5 0.3 0.2 0.8 0.7 1 1 0.4 0.6 0.4 2.3 0.4 37.8l-0.6 0.8c-0.5 0.7-1.8 1.5-7.8 4.4-3.9 1.9-67.4 33.2-141.1 69.5-118.1 58.1-134 65.9-135 65.9-0.9 0-16.9-7.8-135-65.9-73.6-36.3-137.1-67.6-141.1-69.5-5.9-2.9-7.3-3.7-8.4-5.2l-0.1-17.5c0-9.6 0-18.1 0.1-18.8 0.1-1 0.3-1.4 0.9-2.1 0.5-0.4 1.1-0.8 1.5-0.9 0.4 0 1 0 1.4 0.1zm0.5 83.5c0.8 0 26.2 12.2 140.4 67.7 76.7 37.2 139.6 67.7 139.8 67.7 0.2 0 63.1-30.5 139.8-67.7 109.3-53.1 139.7-67.7 140.4-67.7 0.5 0 1.2 0.2 1.6 0.4 0.4 0.2 0.9 0.7 1.1 1.1 0.4 0.7 0.4 2.1 0.4 37.8l-0.6 0.8c-0.5 0.7-18.6 9.6-141.1 69.2-123.4 60-140.6 68.3-141.6 68.3-0.9 0-18.1-8.3-141.6-68.3-122.5-59.6-140.5-68.5-141.7-70v-18.4c0-15.8 0-18.5 0.4-19.2 0.2-0.5 0.7-1 1-1.3 0.4-0.2 1.2-0.4 1.7-0.4z"/>
		<path id="Path 1" class="s1" d="m161.3 284.2l0.1 13.8 137.8 64.6c106.7-49.9 137.8-64.5 137.9-64.6 0.1-0.1 0.2-6.4 0.1-13.9v-13.7l-137.9 67.6c-100.2-49.2-131.3-64.4-133.7-65.5l-4.4-2.2z"/>
		<path id="Path 2" class="s2" d="m161 270.2c0 0-32.9 13.3-72.9 29.5l-72.9 29.4-0.1 36.4c219.6 107.3 283.6 138.5 283.9 138.7 0.6 0.1 18-8.3 142.8-69.3l142.1-69.4-0.1-36.4c-112.7-45.5-145.7-58.8-146-58.9l-0.5-0.1 0.1 28.4c86.8 37 112 47.8 112 47.9 0 0.1-56.2 27.8-125 61.6l-124.9 61.5c-193.6-95.3-249.8-123-249.8-123.1 0-0.1 25.1-10.8 55.8-24l55.9-23.8c-0.1-25.4 0-28.2 0.2-28.1q0.3 0.2 0.1-0.1c-0.1-0.2-0.3-0.3-0.4-0.3-0.1 0-0.2 0-0.3 0.1z"/>
		<path id="Path 3" class="s1" d="m161.3 145l0.1 13.8 137.8 64.6c106.7-49.9 137.8-64.5 137.9-64.6 0.1-0.1 0.2-6.4 0.1-13.9v-13.7l-137.9 67.6c-100.2-49.2-131.3-64.4-133.7-65.5l-4.4-2.2zm0 69.6l0.1 13.9 137.8 64.6c106.7-50 137.8-64.6 137.9-64.7 0.1-0.1 0.2-6.3 0.1-13.9v-13.7l-137.9 67.7c-100.2-49.2-131.2-64.4-133.6-65.6l-4.5-2.1z"/>
		<path id="Path 4" class="s2" d="m18 432.3l0.1 17.9c217.8 107.2 281.2 138.3 281.4 138.3 0.2 0 63.6-31.1 140.9-69.2l140.5-69.1c0.1-27.6 0.1-35.6 0-35.6-0.1 0-63.3 31.2-140.6 69.3-77.3 38.2-140.7 69.4-140.8 69.4-0.1 0-63.5-31.2-140.7-69.4-77.3-38.1-140.6-69.3-140.7-69.3-0.1 0-0.1 8-0.1 17.7zm1 83.4v17.8c3.6 1.8 66.7 32.5 142.5 69.4 75.8 36.9 137.9 67 138 67 0.1 0 62.3-30.1 138.1-67 75.8-36.9 138.9-67.6 140.2-68.2l2.3-1.2c0-34.5 0-35.4-0.4-35.3-0.3 0-63.3 30.6-140.2 67.9-76.9 37.3-139.9 67.8-140 67.8-0.1 0-63.1-30.5-140-67.8-76.8-37.3-139.9-67.9-140.1-67.9-0.3-0.2-0.4 1.4-0.4 17.5z"/>
		<path id="Path 5" class="s0" d="m159.6 332.4c-0.4 0.2-0.9 0.8-1.1 1.2-0.3 0.6-0.4 2.5-0.3 15.3l0.1 14.7c1.2 1.5 9.3 5.4 70.7 34.2 50.8 23.8 69.7 32.6 70.3 32.6 0.6 0 19.4-8.8 70.3-32.6 61.4-28.8 69.5-32.7 70.1-33.4l0.6-0.8c0.1-27.6 0.1-29.4-0.2-30-0.3-0.4-0.8-1-1.1-1.2-0.4-0.2-1.1-0.4-1.5-0.4-0.4 0-3.1 1.2-6.6 2.9-3.3 1.6-34.3 16.8-68.8 33.7l-62.8 30.8c-97.4-47.7-128.3-62.9-131.6-64.5q-5.9-2.9-6.7-2.9c-0.4 0-1.1 0.2-1.4 0.4z"/>
		<path id="Path 6" class="s1" d="m161.3 349l0.1 13.8 137.8 64.6c106.7-49.9 137.8-64.5 137.9-64.6 0.1-0.1 0.2-6.4 0.1-13.9v-13.7l-137.9 67.6c-100.2-49.2-131.3-64.4-133.7-65.5l-4.4-2.2z"/>
	</g>
</svg>